<svg xmlns="http://www.w3.org/2000/svg" xmlns:xlink="http://www.w3.org/1999/xlink" width="56px" height="39px" viewBox="0 0 56 39"><title>1</title><desc>Created with Sketch.</desc><g id="Design" stroke="none" stroke-width="1" fill="none" fill-rule="evenodd"><g id="1" fill="#FFFFFF"><path d="M54,28.8333333 C54,29.4773333 53.4375,30 52.75,30 L50.25,30 C49.5625,30 49,29.4773333 49,28.8333333 L49,10.1666667 C49,9.52266667 49.5625,9 50.25,9 L52.75,9 C53.4375,9 54,9.52266667 54,10.1666667 L54,28.8333333 Z M47,35.8666667 C47,36.4922667 46.4375,37 45.75,37 L43.25,37 C42.5625,37 42,36.4922667 42,35.8666667 L42,22.2666667 L42,17.7333333 L42,4.13333333 C42,3.50773333 42.5625,3 43.25,3 L45.75,3 C46.4375,3 47,3.50773333 47,4.13333333 L47,10.9333333 L47,29.0666667 L47,35.8666667 Z M17,21 L40,21 L40,19 L17,19 L17,21 Z M14,35.8666667 C14,36.4922667 13.4375,37 12.75,37 L10.25,37 C9.5625,37 9,36.4922667 9,35.8666667 L9,29.0666667 L9,10.9333333 L9,4.13333333 C9,3.50773333 9.5625,3 10.25,3 L12.75,3 C13.4375,3 14,3.50773333 14,4.13333333 L14,17.7333333 L14,22.2666667 L14,35.8666667 Z M5.75,30 L3.25,30 C2.5625,30 2,29.4773333 2,28.8333333 L2,10.1666667 C2,9.52266667 2.5625,9 3.25,9 L5.75,9 C6.4375,9 7,9.52266667 7,10.1666667 L7,28.8333333 C7,29.4773333 6.4375,30 5.75,30 L5.75,30 Z M50.1666667,6.88235294 C49.756,6.88235294 49.3663333,6.96494118 49,7.09341176 L49,3.44117647 C49,1.54394118 47.4296667,0 45.5,0 L43.1666667,0 C41.237,0 39.6666667,1.54394118 39.6666667,3.44117647 L39.6666667,16.0588235 L16.3333333,16.0588235 L16.3333333,3.44117647 C16.3333333,1.54394118 14.763,0 12.8333333,0 L10.5,0 C8.57033333,0 7,1.54394118 7,3.44117647 L7,7.09341176 C6.63366667,6.96494118 6.244,6.88235294 5.83333333,6.88235294 L3.5,6.88235294 C1.57033333,6.88235294 0,8.42629412 0,10.3235294 L0,28.6764706 C0,30.5737059 1.57033333,32.1176471 3.5,32.1176471 L5.83333333,32.1176471 C6.244,32.1176471 6.63366667,32.0350588 7,31.9065882 L7,35.5588235 C7,37.4560588 8.57033333,39 10.5,39 L12.8333333,39 C14.763,39 16.3333333,37.4560588 16.3333333,35.5588235 L16.3333333,24.0753174 L39.6666667,24.0753174 L39.6666667,35.5588235 C39.6666667,37.4560588 41.237,39 43.1666667,39 L45.5,39 C47.4296667,39 49,37.4560588 49,35.5588235 L49,31.9065882 C49.3663333,32.0350588 49.756,32.1176471 50.1666667,32.1176471 L52.5,32.1176471 C54.4296667,32.1176471 56,30.5737059 56,28.6764706 L56,10.3235294 C56,8.42629412 54.4296667,6.88235294 52.5,6.88235294 L50.1666667,6.88235294 Z" id="Fill-1-Copy"></path></g></g></svg>