<svg xmlns="http://www.w3.org/2000/svg" xmlns:xlink="http://www.w3.org/1999/xlink" width="45px" height="57px" viewBox="0 0 45 57"><title>3</title><desc>Created with Sketch.</desc><g id="Design" stroke="none" stroke-width="1" fill="none" fill-rule="evenodd"><g id="3" fill="#FFFFFF"><path d="M18,9.4 C19.9848,9.4 21.6,11.0152 21.6,13 C21.6,14.9848 19.9848,16.6 18,16.6 C16.0152,16.6 14.4,14.9848 14.4,13 C14.4,11.0152 16.0152,9.4 18,9.4 M18,19 C21.3096,19 24,16.3072 24,13 C24,9.6928 21.3096,7 18,7 C14.6904,7 12,9.6928 12,13 C12,16.3072 14.6904,19 18,19" id="Fill-1"></path><path d="M18,2.36363636 C23.8641818,2.36363636 28.6363636,7.13581818 28.6363636,13 C28.6363636,18.8641818 23.8641818,23.6363636 18,23.6363636 C12.1358182,23.6363636 7.36363636,18.8641818 7.36363636,13 C7.36363636,7.13581818 12.1358182,2.36363636 18,2.36363636 M18,26 C25.1665455,26 31,20.1689091 31,13 C31,5.83109091 25.1665455,0 18,0 C10.8334545,0 5,5.83109091 5,13 C5,20.1689091 10.8334545,26 18,26" id="Fill-3"></path><path d="M43.8157895,52.3333333 C39.4815789,52.3333333 36.5092105,52.856 33.3639474,53.4066667 C29.8444737,54.0273333 26.2018421,54.6666667 20.1315789,54.6666667 C14.9092105,54.6666667 12.7586842,54.347 11.3328947,54.1323333 C9.63473684,53.8826667 8.91,53.822 6.48710526,54.466 C3.68052632,49.5613333 2.36842105,45.5293333 2.36842105,41.8333333 C2.36842105,39.9433333 3.33236842,37.2996667 4.35315789,34.4996667 C5.64394737,30.9576667 7.10526316,26.942 7.10526316,23.1666667 C7.10526316,22.5226667 6.57473684,22 5.92105263,22 C5.26736842,22 4.73684211,22.5226667 4.73684211,23.1666667 C4.73684211,26.536 3.34894737,30.3486667 2.12210526,33.711 C1.03263158,36.707 0,39.5373333 0,41.8333333 C0,46.1546667 1.55605263,50.7886667 4.89789474,56.4213333 C5.11578947,56.7876667 5.50894737,57 5.92105263,57 C6.03,57 6.14131579,56.986 6.25026316,56.9533333 C9.05684211,56.153 9.42394737,56.2113333 10.98,56.44 C12.3844737,56.65 14.7315789,57 20.1315789,57 C26.4102632,57 30.3276316,56.3116667 33.7807895,55.705 C36.8194737,55.1706667 39.69,54.6666667 43.8157895,54.6666667 C44.4694737,54.6666667 45,54.144 45,53.5 C45,52.856 44.4694737,52.3333333 43.8157895,52.3333333" id="Fill-5"></path><path d="M29.4413479,37.0432676 C23.8406934,33.8864659 19.2182677,35.102573 16.1162217,36.9348102 C16.6583726,33.2611053 15.6966441,28.9874236 14.011262,27.337487 C13.5516123,26.8875043 12.8043869,26.8875043 12.3447373,27.337487 C11.8850876,27.7897773 11.8850876,28.51898 12.3447373,28.9689627 C14.0584055,30.6488981 14.7254868,37.1955694 12.580455,39.7754702 C12.4955966,39.8654667 12.4154526,39.950848 12.3447373,40.0293066 C11.8850876,40.4815969 11.8850876,41.2107996 12.3447373,41.6607823 C12.5757407,41.8869274 12.8774594,42 13.1791782,42 C13.480897,42 13.7802585,41.8869274 14.011262,41.6607823 C14.1385496,41.5384793 14.2587656,41.4092535 14.369553,41.2731049 C16.5004417,39.0116534 21.7781628,34.8948887 29.0359133,39.5054806 C29.5544924,39.8331603 30.2475027,39.7177801 30.6175796,39.2354909 C30.6458658,39.2008769 33.3519059,35.7463944 37.1776055,35.2687204 C39.1812066,35.014884 41.1683075,35.6471674 43.0894074,37.1355717 C43.6032722,37.5278643 44.3410688,37.4494058 44.7465034,36.9463482 C45.1495808,36.4455982 45.0623652,35.7210107 44.5532148,35.3264105 C42.1111786,33.4387908 39.5418548,32.6449752 36.8782439,32.9795777 C33.3283341,33.4249452 30.6482229,35.7787008 29.4413479,37.0432676" id="Fill-7"></path><path d="M17.5074627,15 C18.3313433,15 19,14.328 19,13.5 C19,12.672 18.3313433,12 17.5074627,12 L17.4776119,12 C16.6537313,12 16,12.672 16,13.5 C16,14.328 16.6865672,15 17.5074627,15" id="Fill-9"></path></g></g></svg>