<svg xmlns="http://www.w3.org/2000/svg" xmlns:xlink="http://www.w3.org/1999/xlink" width="55px" height="45px" viewBox="0 0 55 45"><title>Clock</title><desc>Created with Sketch.</desc><defs><polygon id="path-1" points="0 0.666055556 11.3689895 0.666055556 11.3689895 8 0 8"></polygon><polygon id="path-3" points="0.631010526 0.614807692 12 0.614807692 12 7.53903846 0.631010526 7.53903846"></polygon></defs><g id="Design" stroke="none" stroke-width="1" fill="none" fill-rule="evenodd"><g id="Clock"><path d="M34.7494532,31 C34.4294732,31 34.1094932,30.8841818 33.8645085,30.6549091 L26.3649772,23.564 C26.1324917,23.3418182 26,23.0416364 26,22.7272727 L26,6.18181818 C26,5.52945455 26.559965,5 27.2499219,5 C27.9398788,5 28.4998438,5.52945455 28.4998438,6.18181818 L28.4998438,22.238 L35.6343979,28.9814545 C36.1218674,29.4447273 36.1218674,30.1916364 35.6343979,30.6549091 C35.3894132,30.8841818 35.0694332,31 34.7494532,31" id="Fill-1" fill="#FFFFFF"></path><path d="M27.3448465,45 C17.8702228,45 9.32088332,38.9664 6.07284973,29.9856 C5.8462982,29.3616 6.1658551,28.6752 6.78589088,28.4496 C7.40115715,28.2264 8.08796602,28.5432 8.31451755,29.1648 C11.2191467,37.2 18.8670496,42.6 27.3448465,42.6 C38.5221838,42.6 47.615247,33.4488 47.615247,22.2 C47.615247,21.5376 48.1494317,21 48.8076235,21 C49.4658153,21 50,21.5376 50,22.2 C50,34.7712 39.8361827,45 27.3448465,45" id="Fill-3" fill="#FFFFFF"></path><path d="M6.1923765,24 C5.53418467,24 5,23.4624 5,22.8 C5,10.2288 15.1638173,0 27.6551535,0 C37.1297772,0 45.6791167,6.0336 48.9271503,15.0144 C49.1537018,15.6384 48.8341449,16.3248 48.2141091,16.5504 C47.5988428,16.7736 46.912034,16.4568 46.6854824,15.8352 C43.7808533,7.8 36.1329504,2.4 27.6551535,2.4 C16.4778162,2.4 7.384753,11.5512 7.384753,22.8 C7.384753,23.4624 6.85056833,24 6.1923765,24" id="Fill-5" fill="#FFFFFF"></path><g id="Group-9" transform="translate(0.000000, 18.000000)"><mask id="mask-2" fill="white"><use xlink:href="#path-1"></use></mask><g id="Clip-8"></g><path d="M5.68421053,8 C5.39317895,8 5.10214737,7.88022222 4.87932632,7.64311111 L0.331957895,2.75422222 C-0.111410526,2.27511111 -0.111410526,1.50266667 0.331957895,1.02355556 C0.7776,0.546888889 1.49608421,0.546888889 1.94172632,1.02355556 L5.68421053,5.04955556 L9.42669474,1.02355556 C9.87233684,0.546888889 10.5908211,0.546888889 11.0364632,1.02355556 C11.4798316,1.50266667 11.4798316,2.27511111 11.0364632,2.75422222 L6.48909474,7.64311111 C6.26627368,7.88022222 5.97524211,8 5.68421053,8" id="Fill-7" fill="#FFFFFF" mask="url(#mask-2)"></path></g><g id="Group-12" transform="translate(43.000000, 19.000000)"><mask id="mask-4" fill="white"><use xlink:href="#path-3"></use></mask><g id="Clip-11"></g><path d="M10.8631579,7.53846154 C10.5721263,7.53846154 10.2810947,7.42538462 10.0582737,7.20153846 L6.31578947,3.40076923 L2.57330526,7.20153846 C2.12766316,7.65153846 1.40917895,7.65153846 0.963536842,7.20153846 C0.520168421,6.74923077 0.520168421,6.02 0.963536842,5.56769231 L5.51090526,0.952307692 C5.95654737,0.502307692 6.67503158,0.502307692 7.12067368,0.952307692 L11.6680421,5.56769231 C12.1114105,6.02 12.1114105,6.74923077 11.6680421,7.20153846 C11.4452211,7.42538462 11.1541895,7.53846154 10.8631579,7.53846154" id="Fill-10" fill="#FFFFFF" mask="url(#mask-4)"></path></g></g></g></svg>