<svg xmlns="http://www.w3.org/2000/svg" xmlns:xlink="http://www.w3.org/1999/xlink" width="56px" height="56px" viewBox="0 0 56 56"><title>Heart</title><desc>Created with Sketch.</desc><g id="Design" stroke="none" stroke-width="1" fill="none" fill-rule="evenodd"><g id="Heart" fill="#FFFFFF"><path d="M43,53.6363636 C37.1358182,53.6363636 32.3636364,48.8641818 32.3636364,43 C32.3636364,37.1358182 37.1358182,32.3636364 43,32.3636364 C48.8641818,32.3636364 53.6363636,37.1358182 53.6363636,43 C53.6363636,48.8641818 48.8641818,53.6363636 43,53.6363636 M43,30 C35.8334545,30 30,35.8310909 30,43 C30,50.1689091 35.8334545,56 43,56 C50.1665455,56 56,50.1689091 56,43 C56,35.8310909 50.1665455,30 43,30" id="Fill-1"></path><path d="M50.9276734,38.3509825 L42.0724695,47.100945 L38.0723266,43.1507425 C37.5987213,42.6827659 36.8288092,42.6827659 36.3552039,43.1507425 C35.8815987,43.6187191 35.8815987,44.379481 36.3552039,44.8474576 L41.2126938,49.6472176 C41.4507108,49.8824059 41.7615901,50 42.0724695,50 C42.3809201,50 42.6917994,49.8824059 42.9298164,49.6472176 L52.6447961,40.0476976 C53.1184013,39.579721 53.1184013,38.8189591 52.6447961,38.3509825 C52.1711908,37.8830058 51.4012787,37.8830058 50.9276734,38.3509825" id="Fill-3"></path><path d="M29.7385667,52.8441667 C28.7492333,53.9781667 26.9432333,53.8545 26.1032333,52.6831667 C26.0822333,52.6505 26.0565667,52.6178333 26.0285667,52.5875 L4.83723333,23.5351667 C3.19923333,21.2438333 2.33356667,18.5511667 2.33356667,15.7511667 C2.33356667,8.35216667 8.35123333,2.3345 15.7502333,2.3345 C20.3165667,2.3345 24.5305667,4.63283333 27.0202333,8.4875 C27.4495667,9.1525 28.5509,9.1525 28.9802333,8.4875 C31.4699,4.63283333 35.6839,2.3345 40.2502333,2.3345 C47.6492333,2.3345 53.6669,8.35216667 53.6669,15.7511667 C53.6669,18.5511667 52.8012333,21.2438333 51.1702333,23.5258333 L48.3725667,27.3595 C47.9945667,27.8775 48.1089,28.6078333 48.6292333,28.9881667 C49.1472333,29.3661667 49.8775667,29.2541667 50.2602333,28.7338333 L53.0625667,24.8908333 C54.9829,22.2028333 56.0002333,19.0411667 56.0002333,15.7511667 C56.0002333,7.06416667 48.9349,0.00116666667 40.2502333,0.00116666667 C35.4482333,0.00116666667 30.9799,2.16416667 28.0002333,5.86483333 C25.0205667,2.16416667 20.5499,0.00116666667 15.7502333,0.00116666667 C7.06556667,0.00116666667 0.000233333333,7.06416667 0.000233333333,15.7511667 C0.000233333333,19.0411667 1.01523333,22.2028333 2.9449,24.9001667 L24.2062333,54.0481667 C24.2319,54.0808333 24.2529,54.1111667 24.2809,54.1391667 C25.1629,55.3081667 26.5442333,56.0011667 28.0002333,56.0011667 C29.3279,56.0011667 30.6065667,55.4061667 31.5025667,54.3701667 C31.9249,53.8848333 31.8712333,53.1475 31.3835667,52.7251667 C30.8959,52.3051667 30.1609,52.3565 29.7385667,52.8441667" id="Fill-5"></path></g></g></svg>