<svg xmlns="http://www.w3.org/2000/svg" xmlns:xlink="http://www.w3.org/1999/xlink" width="45px" height="45px" viewBox="0 0 45 45"><title>Man</title><desc>Created with Sketch.</desc><g id="Design" stroke="none" stroke-width="1" fill="none" fill-rule="evenodd"><g id="Man" fill="#FFFFFF"><path d="M11.3474533,16.7207207 L11.394871,16.4490246 L11.6566563,16.4666537 C12.4301577,16.5164301 13.1414233,16.6222049 13.2609555,16.6398341 L13.3636938,16.6491672 C13.5168135,16.6491672 13.6649939,16.5879837 13.7795867,16.4749498 C13.9188762,16.3411757 13.9900028,16.1503662 13.9761726,15.9533346 C13.8349073,13.9207985 13.9514759,11.7793765 14.2409215,11.0793959 L14.3189631,10.8927345 L14.5125855,10.8927345 C15.60912,10.8916975 17.8930731,10.8906604 19.2889319,9.43158986 C19.514166,9.197226 19.7038369,8.93797395 19.8530051,8.66212976 L20.0456395,8.31162097 L20.3192793,8.59576123 C22.1300431,10.4758572 26.0015016,12.5166894 29.8986446,12.7821635 L30.1386968,12.7987556 L30.1732722,13.0486746 C30.3896155,14.6508523 31.0682815,16.245771 31.0761845,16.2634001 C31.1739835,16.4956899 31.3932904,16.6470931 31.6847117,16.6470931 C31.6866875,16.6470931 33.613032,16.4822088 33.613032,16.4822088 L33.6604497,16.760127 C33.7296005,17.1697453 33.7631881,17.5482533 33.7631881,17.9195022 C33.7631881,19.7954501 33.1309519,21.0585262 32.4433951,21.0585262 C32.4414194,21.0585262 32.384123,21.0460821 32.384123,21.0460821 L32.338681,21.0170458 C32.240882,20.9527513 32.1292528,20.91853 32.0136721,20.91853 C31.9336547,20.91853 31.8556131,20.9351222 31.7815229,20.9662324 C31.5977793,21.044008 31.4604655,21.2099294 31.4130478,21.411109 C30.1021457,26.9694731 26.5191449,30.7037397 22.4995061,30.7037397 C18.4798672,30.7037397 14.8978543,26.9694731 13.5869522,21.4100719 C13.5454617,21.2348176 13.3962935,21.0761553 13.1908168,20.9880096 C13.128581,20.9620844 13.0574545,20.9486033 12.9804007,20.9486033 C12.850002,20.9486033 12.7117003,20.9900836 12.6020469,21.0616372 L12.5299324,21.1083025 L12.4449757,21.1083025 C11.9520291,21.1083025 11.2358241,19.8659667 11.2358241,17.9195022 C11.2358241,17.5441053 11.2723752,17.1521161 11.3474533,16.7207207 M22.4995061,1.2972973 C28.7102383,1.2972973 33.7631881,6.6015944 33.7631881,13.1212652 C33.7631881,13.6345842 33.7088553,14.2153088 33.5893231,14.9484737 L33.5507962,15.1859485 L32.0393567,15.3166116 L31.9613151,15.0946918 C31.6797724,14.2920474 31.3438969,13.1326722 31.3438969,12.1620325 C31.3438969,11.8042647 31.0663058,11.5139024 30.725491,11.5139024 C25.3406172,11.5139024 20.5138894,7.68423099 20.3755878,6.40559984 C20.3755878,6.047832 20.0979966,5.75643269 19.7581697,5.75643269 C19.4173549,5.75643269 19.1397637,6.047832 19.1397637,6.40559984 C19.1397637,7.31713008 18.903663,8.00674055 18.4186194,8.51280057 C17.5058284,9.46684814 15.9390682,9.59543716 14.5115976,9.59543716 C14.0196388,9.59543716 13.6946299,9.71573012 13.4575414,9.98535226 C12.8845774,10.6303714 12.6109377,12.3777302 12.6860157,14.9038823 L12.6968823,15.2564651 L12.3619947,15.2232808 C12.1496029,15.2015037 11.9164658,15.1828375 11.6793772,15.1672824 L11.4442644,15.1538013 L11.4047497,14.9090673 C11.2881811,14.1914576 11.2358241,13.6231771 11.2358241,13.1212652 C11.2358241,6.6015944 16.2887739,1.2972973 22.4995061,1.2972973 M10,17.9195022 C10,20.3938039 11.0125657,22.3216022 12.3560675,22.4035258 L12.5615442,22.4159699 L12.6218042,22.6244086 C14.2577153,28.3196578 18.135101,32 22.4995061,32 C26.8639112,32 30.7412969,28.3196578 32.3772079,22.6244086 L32.4374679,22.4159699 L32.6439325,22.4035258 C33.9874343,22.3216022 35,20.3938039 35,17.9195022 C35,17.1946335 34.9081282,16.4728758 34.7332754,15.8330417 L34.7125301,15.7594141 L34.7273482,15.6837125 C34.9130675,14.7327759 35,13.9187245 35,13.1212652 C35,5.88605872 29.3928557,0 22.4995061,0 C15.6071443,0 10,5.88605872 10,13.1212652 C10,13.9239095 10.0869325,14.737961 10.2726518,15.6837125 L10.2874699,15.7594141 L10.2667246,15.8330417 C10.0918718,16.4728758 10,17.1946335 10,17.9195022" id="Fill-1"></path><path d="M18.6054159,19 L20.3955513,19 C20.7282398,19 21,18.5507594 21,18.0007994 C21,17.4492406 20.7282398,17 20.3955513,17 L18.6054159,17 C18.2717602,17 18,17.4492406 18,18.0007994 C18,18.5507594 18.2717602,19 18.6054159,19" id="Fill-3"></path><path d="M24.6054159,19 L26.3945841,19 C26.7272727,19 27,18.5507594 27,18.0007994 C27,17.4492406 26.7272727,17 26.3945841,17 L24.6054159,17 C24.2717602,17 24,17.4492406 24,18.0007994 C24,18.5507594 24.2717602,19 24.6054159,19" id="Fill-5"></path><path d="M37.4030919,43.7669671 L37.412336,43.4633906 C37.566405,38.2168403 39.0187618,36.701915 39.0937421,36.6279921 C39.1101761,36.6132075 39.1317457,36.5796959 39.1533154,36.5442129 L39.3310083,36.277105 L40.6046451,36.8882005 C41.4294277,37.2824556 42.032351,38.0039426 42.2572917,38.86539 L43.5360642,43.7669671 L37.4030919,43.7669671 Z M36.121238,43.7669671 L23.6765734,43.7669671 L31.281418,32.4143903 L38.1826809,35.7261335 L37.9587673,36.0099972 C37.4534211,36.6486905 36.2640086,38.6554492 36.129455,43.4791608 L36.121238,43.7669671 Z M8.87876201,43.7669671 L8.87054499,43.4791608 C8.7349643,38.6524923 7.54657894,36.6477049 7.04020558,36.0099972 L6.81629201,35.7261335 L13.718582,32.4143903 L21.3244537,43.7669671 L8.87876201,43.7669671 Z M1.4659901,43.7669671 L2.74270833,38.86539 C2.96764904,38.0029569 3.57057229,37.2824556 4.39432774,36.8882005 L5.68029011,36.2711912 L5.91242069,36.6319347 C5.97404828,36.6910729 7.43051365,38.1488313 7.587664,43.4633906 L7.59588102,43.7669671 L1.4659901,43.7669671 Z M44.9812311,44.2331738 L43.5031961,38.5667418 C43.1878683,37.3573641 42.341516,36.3431428 41.1808631,35.7862574 L31.3399642,31.0640665 C31.2516313,31.021684 31.1550814,31 31.0554501,31 C30.8335908,31 30.6312469,31.1054632 30.5121002,31.2818924 L22.4994864,43.2435934 L14.4868727,31.2818924 C14.3697802,31.1054632 14.1674363,31 13.9466041,31 C13.8449186,31 13.7493958,31.021684 13.6590087,31.0650521 L3.82016403,35.7862574 C2.65951109,36.3431428 1.81213173,37.3563785 1.49577677,38.5657561 L0.0187688733,44.2331738 C-0.0284789454,44.4165024 0.0146603674,44.6146156 0.134834167,44.7624613 C0.25706222,44.9132639 0.442972115,45 0.642234655,45 L44.3577653,45 C44.5570279,45 44.7429378,44.9132639 44.8651658,44.7624613 C44.9853396,44.6146156 45.0284789,44.417488 44.9812311,44.2331738 L44.9812311,44.2331738 Z" id="Fill-7"></path><path d="M20.6428877,24.0281052 C20.5225521,24.0281052 20.405302,24.0580236 20.302451,24.1142339 C20.1564026,24.1940163 20.0556086,24.3191296 20.0165253,24.4669084 C19.9784704,24.6137806 20.0062402,24.7660925 20.0988061,24.8957389 C20.1780013,25.0090662 20.9493836,26 23.4970024,26 C26.0456496,26 26.8170319,25.0090662 26.8972557,24.8948323 C26.988793,24.7651859 27.0217054,24.6029012 26.9857075,24.4505893 C26.9497097,24.2982774 26.8520012,24.1713509 26.7090384,24.0924751 C26.6000164,24.0317316 26.4765952,24 26.353174,24 C26.1402725,24 25.9530837,24.0915684 25.826577,24.268359 C25.8214345,24.2737987 25.3112936,24.8658205 23.4970024,24.8658205 C21.880185,24.8658205 21.2970199,24.3925657 21.1694847,24.268359 C21.0491491,24.1178604 20.8516752,24.0281052 20.6428877,24.0281052" id="Fill-9"></path><path d="M32.4950515,40 L29.5049485,40 C29.2262169,40 29,40.4492406 29,40.9992006 C29,41.5507594 29.2262169,42 29.5049485,42 L32.4950515,42 C32.7737831,42 33,41.5507594 33,40.9992006 C33,40.4492406 32.7737831,40 32.4950515,40" id="Fill-11"></path></g></g></svg>