<svg xmlns="http://www.w3.org/2000/svg" xmlns:xlink="http://www.w3.org/1999/xlink" width="45px" height="45px" viewBox="0 0 45 45"><title>Star1</title><desc>Created with Sketch.</desc><g id="Design" stroke="none" stroke-width="1" fill="none" fill-rule="evenodd"><g id="Star1" fill="#FFFFFF"><path d="M35,26.8181818 C30.4890909,26.8181818 26.8181818,30.4890909 26.8181818,35 C26.8181818,39.5109091 30.4890909,43.1818182 35,43.1818182 C39.5109091,43.1818182 43.1818182,39.5109091 43.1818182,35 C43.1818182,30.4890909 39.5109091,26.8181818 35,26.8181818 M35,45 C29.4872727,45 25,40.5145455 25,35 C25,29.4854545 29.4872727,25 35,25 C40.5127273,25 45,29.4854545 45,35 C45,40.5145455 40.5127273,45 35,45" id="Fill-1"></path><path d="M33.6429898,39 C33.4052925,39 33.1675952,38.9118044 32.9856082,38.7372131 L29.2715877,35.1373931 C28.9094708,34.7846108 28.9094708,34.2158392 29.2715877,33.8630568 C29.6355617,33.5120744 30.222377,33.5120744 30.586351,33.8630568 L33.6429898,36.8275086 L40.413649,30.2632368 C40.777623,29.9122544 41.3644383,29.9122544 41.7284123,30.2632368 C42.0905292,30.6160192 42.0905292,31.1847908 41.7284123,31.5375731 L34.3003714,38.7372131 C34.1183844,38.9118044 33.8806871,39 33.6429898,39" id="Fill-3"></path><path d="M8.41285652,41 C8.21281304,41 8.0109,40.9347727 7.8445087,40.8080455 C7.56220435,40.5918636 7.42759565,40.2340455 7.49676957,39.8855455 L10.2020304,26.3984091 L0.272769565,16.5006364 C0.0222478261,16.2490455 -0.0637521739,15.8781818 0.0484217391,15.5408636 C0.164334783,15.2054091 0.459726087,14.9631364 0.813073913,14.9165455 L14.3524652,13.1274545 L20.6641174,0.516227273 C20.9782043,-0.115545455 22.0214217,-0.115545455 22.3355087,0.516227273 L28.6471609,13.1274545 L42.1865522,14.9165455 C42.5399,14.9631364 42.8352913,15.2054091 42.9512043,15.5408636 C43.0633783,15.8781818 42.9773783,16.2490455 42.7268565,16.5006364 L36.9872913,22.2182727 C36.6227261,22.5835455 36.0300739,22.5835455 35.6655087,22.2182727 C35.3009435,21.8548636 35.3009435,21.2659545 35.6655087,20.9006818 L40.0645957,16.5174091 L27.9105522,14.9109545 C27.6020739,14.8699545 27.3347261,14.6798636 27.1963783,14.4040455 L21.499813,3.01909091 L15.8032478,14.4040455 C15.6649,14.6798636 15.3975522,14.8699545 15.0890739,14.9109545 L2.93316087,16.5174091 L11.8790304,25.4311818 C12.0996391,25.6529545 12.194987,25.9679091 12.1332913,26.2735455 L9.70285652,38.3834545 L21.0810304,32.7124091 C21.3446391,32.5800909 21.654987,32.5800909 21.9185957,32.7124091 C22.3803783,32.9416364 22.5897696,33.5137727 22.3579435,33.9722273 C22.2252043,34.2424545 21.9859,34.4195 21.7185522,34.4772727 L8.83163913,40.9012273 C8.6989,40.9664545 8.55494348,41 8.41285652,41" id="Fill-5"></path></g></g></svg>